<svg
   viewBox="0 0 281.25384 281.25384"
   version="1.1"
   id="svg34"
   sodipodi:docname="artificial-horizon2.svg"
   width="281.25385"
   height="281.25385"
   inkscape:version="1.4 (86a8ad7, 2024-10-11)"
   xmlns:inkscape="http://www.inkscape.org/namespaces/inkscape"
   xmlns:sodipodi="http://sodipodi.sourceforge.net/DTD/sodipodi-0.dtd"
   xmlns="http://www.w3.org/2000/svg"
   xmlns:svg="http://www.w3.org/2000/svg">
  <defs
     id="defs34" />
  <sodipodi:namedview
     id="namedview34"
     pagecolor="#505050"
     bordercolor="#eeeeee"
     borderopacity="1"
     inkscape:showpageshadow="0"
     inkscape:pageopacity="0"
     inkscape:pagecheckerboard="0"
     inkscape:deskcolor="#505050"
     inkscape:zoom="1.42427"
     inkscape:cx="247.14414"
     inkscape:cy="172.369"
     inkscape:window-width="2560"
     inkscape:window-height="1351"
     inkscape:window-x="1431"
     inkscape:window-y="608"
     inkscape:window-maximized="1"
     inkscape:current-layer="layer3" />
  <g
     inkscape:groupmode="layer"
     id="layer3"
     inkscape:label="bille">
    <rect
       style="fill:#733813;fill-opacity:1;stroke-width:1.6109;stroke-dasharray:none"
       id="rect43"
       width="758.61017"
       height="282.1051"
       x="-240.02019"
       y="141.69948" />
    <rect
       style="fill:#000080;fill-opacity:1;stroke-width:1.60602;stroke-dasharray:none"
       id="rect44"
       width="760.80017"
       height="281.0018"
       x="-240.95236"
       y="-139.50795" />
    <path
       d="m 699.35,287.39 17.431,-0.0931"
       fill="none"
       stroke="#ffffff"
       stroke-linecap="square"
       stroke-width="1.5"
       id="path19"
       style="stroke-width:1.00065;stroke-dasharray:none;display:inline"
       transform="matrix(0.69155,0,0,0.69155,-349.03198,-64.099544)" />
    <path
       d="m 699.35,266.98 17.431,-0.0931"
       fill="none"
       stroke="#ffffff"
       stroke-linecap="square"
       stroke-width="1.5"
       id="path20"
       style="stroke-width:1.00065;stroke-dasharray:none;display:inline"
       transform="matrix(0.69155,0,0,0.69155,-349.03198,-64.099544)" />
    <path
       d="m 695.91,277.2 24.301,-0.12975"
       fill="none"
       stroke="#ffffff"
       stroke-linecap="square"
       stroke-width="2.0912"
       id="path21"
       style="stroke-width:1.00065;stroke-dasharray:none;display:inline"
       transform="matrix(0.69155,0,0,0.69155,-349.03198,-64.099544)" />
    <path
       d="m 682.68913,282.92115 -0.0927,-10.6871 1.37495,-0.0119 0.0927,10.6871 z m 6.51708,0.13881 c -0.79685,0.007 -1.38407,-0.43854 -1.76166,-1.33635 -0.37759,-0.89781 -0.57446,-2.27634 -0.59059,-4.13565 -0.0318,-3.66653 0.7205,-5.50645 2.2569,-5.51979 0.79163,-0.007 1.38265,0.42684 1.77307,1.30108 0.39042,0.87424 0.5939,2.26708 0.61048,4.17845 0.0159,1.83327 -0.15447,3.20849 -0.5111,4.12568 -0.35663,0.91719 -0.94902,1.37939 -1.7771,1.38658 z m 0.87419,-5.49999 c -0.0143,-1.65097 -0.0957,-2.77271 -0.24404,-3.3652 -0.14837,-0.59249 -0.38141,-0.88734 -0.69911,-0.88459 -0.30727,0.003 -0.53418,0.26506 -0.68069,0.78718 -0.14651,0.52212 -0.21199,1.6816 -0.1964,3.4784 0.0244,2.8176 0.34133,4.22376 0.95069,4.21847 0.60414,-0.005 0.89399,-1.41666 0.86955,-4.23426 z"
       fill="#ffffff"
       id="path22"
       style="stroke-width:1.00065;stroke-dasharray:none;display:inline"
       transform="matrix(0.69155,0,0,0.69155,-349.03198,-64.099544)" />
    <path
       d="m 724.72101,282.92116 -0.0927,-10.6871 1.37495,-0.0119 0.0927,10.6871 z m 6.51707,0.13878 c -0.79685,0.007 -1.38407,-0.43853 -1.76166,-1.33633 -0.37759,-0.8978 -0.57445,-2.27635 -0.59058,-4.13565 -0.0318,-3.66652 0.72049,-5.50645 2.2569,-5.51978 0.79163,-0.007 1.38265,0.42683 1.77307,1.30107 0.39042,0.87424 0.59389,2.26708 0.61048,4.17846 0.0159,1.83326 -0.15447,3.20849 -0.51111,4.12568 -0.35664,0.91719 -0.94901,1.37937 -1.7771,1.38655 z m 0.87421,-5.49997 c -0.0143,-1.65097 -0.0957,-2.7727 -0.24405,-3.3652 -0.14837,-0.5925 -0.38141,-0.88734 -0.6991,-0.8846 -0.30729,0.003 -0.53419,0.26508 -0.6807,0.78719 -0.14651,0.52211 -0.21199,1.6816 -0.1964,3.4784 0.0244,2.81761 0.34134,4.22376 0.95069,4.21848 0.60414,-0.005 0.89399,-1.41666 0.86956,-4.23427 z"
       fill="#ffffff"
       id="path23"
       style="stroke-width:1.00065;stroke-dasharray:none;display:inline"
       transform="matrix(0.69155,0,0,0.69155,-349.03198,-64.099544)" />
    <path
       transform="matrix(0.69155,0,0,0.69155,-177.79728,63.394614)"
       d="m 494.35,137.35 v -12.023 h 1.5469 v 12.023 z m 7.3301,0.21972 c -0.89649,0 -1.5527,-0.50683 -1.9688,-1.5205 -0.4161,-1.01367 -0.62402,-2.5664 -0.62402,-4.6582 0,-4.125 0.86425,-6.1875 2.5928,-6.1875 0.89062,1e-5 1.5513,0.49367 1.9819,1.481 0.4306,0.98733 0.64599,2.5562 0.646,4.7065 -10e-6,2.0625 -0.20508,3.6079 -0.61523,4.6362 -0.41015,1.0283 -1.0811,1.5425 -2.0127,1.5425 z m 1.0371,-6.1787 c 0,-1.8574 -0.0806,-3.1201 -0.2417,-3.7881 -0.16113,-0.668 -0.42041,-1.002 -0.77783,-1.002 -0.34571,1e-5 -0.60352,0.29298 -0.77344,0.87891 -0.16992,0.58593 -0.25488,1.8897 -0.25488,3.9111 0,3.1699 0.34277,4.7549 1.0283,4.7549 0.67968,0 1.0195,-1.585 1.0195,-4.7549 z"
       fill="#ffffff"
       id="path24"
       style="stroke-width:1.00065;stroke-dasharray:none;display:inline" />
    <path
       transform="matrix(0.69155,0,0,0.69155,-230.97748,63.394614)"
       d="m 494.35,137.35 v -12.023 h 1.5469 v 12.023 z m 7.3301,0.21972 c -0.89649,0 -1.5527,-0.50683 -1.9688,-1.5205 -0.4161,-1.01367 -0.62402,-2.5664 -0.62402,-4.6582 0,-4.125 0.86425,-6.1875 2.5928,-6.1875 0.89062,1e-5 1.5513,0.49367 1.9819,1.481 0.4306,0.98733 0.64599,2.5562 0.646,4.7065 -10e-6,2.0625 -0.20508,3.6079 -0.61523,4.6362 -0.41015,1.0283 -1.0811,1.5425 -2.0127,1.5425 z m 1.0371,-6.1787 c 0,-1.8574 -0.0806,-3.1201 -0.2417,-3.7881 -0.16113,-0.668 -0.42041,-1.002 -0.77783,-1.002 -0.34571,1e-5 -0.60352,0.29298 -0.77344,0.87891 -0.16992,0.58593 -0.25488,1.8897 -0.25488,3.9111 0,3.1699 0.34277,4.7549 1.0283,4.7549 0.67968,0 1.0195,-1.585 1.0195,-4.7549 z"
       fill="#ffffff"
       id="path29"
       style="stroke-width:1.00065;stroke-dasharray:none;display:inline" />
    <path
       transform="matrix(0.69155,0,0,0.69155,-166.7394,76.713867)"
       d="m 492.46,137.35 v -0.23731 c 2.1094,-3.4922 3.1641,-6.2461 3.1641,-8.2617 -10e-6,-0.60936 -0.1421,-1.0972 -0.42627,-1.4634 -0.28417,-0.3662 -0.66358,-0.5493 -1.1382,-0.54931 -0.33398,1e-5 -0.78515,0.13184 -1.3535,0.39551 v -1.5996 c 0.62109,-0.2871 1.2041,-0.43066 1.749,-0.43067 0.84961,1e-5 1.5205,0.30031 2.0127,0.90088 0.4922,0.60057 0.73827,1.4224 0.73828,2.4653 -1e-5,0.90236 -0.19337,1.8838 -0.58008,2.9443 -0.38671,1.0605 -1.0459,2.4961 -1.9775,4.3066 h 2.8125 v 1.5293 h -5.001 z m 9.2197,0.21972 c -0.89649,0 -1.5527,-0.50683 -1.9688,-1.5205 -0.4161,-1.01367 -0.62402,-2.5664 -0.62402,-4.6582 0,-4.125 0.86425,-6.1875 2.5928,-6.1875 0.89062,1e-5 1.5513,0.49367 1.9819,1.481 0.4306,0.98733 0.64599,2.5562 0.646,4.7065 -10e-6,2.0625 -0.20508,3.6079 -0.61523,4.6362 -0.41015,1.0283 -1.0811,1.5425 -2.0127,1.5425 z m 1.0371,-6.1787 c 0,-1.8574 -0.0806,-3.1201 -0.2417,-3.7881 -0.16113,-0.668 -0.42041,-1.002 -0.77783,-1.002 -0.34571,1e-5 -0.60352,0.29298 -0.77344,0.87891 -0.16992,0.58593 -0.25488,1.8897 -0.25488,3.9111 0,3.1699 0.34277,4.7549 1.0283,4.7549 0.67968,0 1.0195,-1.585 1.0195,-4.7549 z"
       fill="#ffffff"
       id="path30"
       style="stroke-width:1.00065;stroke-dasharray:none;display:inline" />
    <path
       transform="matrix(0.69155,0,0,0.69155,-241.08102,76.679289)"
       d="m 492.46,137.35 v -0.23731 c 2.1094,-3.4922 3.1641,-6.2461 3.1641,-8.2617 -10e-6,-0.60936 -0.1421,-1.0972 -0.42627,-1.4634 -0.28417,-0.3662 -0.66358,-0.5493 -1.1382,-0.54931 -0.33398,1e-5 -0.78515,0.13184 -1.3535,0.39551 v -1.5996 c 0.62109,-0.2871 1.2041,-0.43066 1.749,-0.43067 0.84961,1e-5 1.5205,0.30031 2.0127,0.90088 0.4922,0.60057 0.73827,1.4224 0.73828,2.4653 -1e-5,0.90236 -0.19337,1.8838 -0.58008,2.9443 -0.38671,1.0605 -1.0459,2.4961 -1.9775,4.3066 h 2.8125 v 1.5293 h -5.001 z m 9.2197,0.21972 c -0.89649,0 -1.5527,-0.50683 -1.9688,-1.5205 -0.4161,-1.01367 -0.62402,-2.5664 -0.62402,-4.6582 0,-4.125 0.86425,-6.1875 2.5928,-6.1875 0.89062,1e-5 1.5513,0.49367 1.9819,1.481 0.4306,0.98733 0.64599,2.5562 0.646,4.7065 -10e-6,2.0625 -0.20508,3.6079 -0.61523,4.6362 -0.41015,1.0283 -1.0811,1.5425 -2.0127,1.5425 z m 1.0371,-6.1787 c 0,-1.8574 -0.0806,-3.1201 -0.2417,-3.7881 -0.16113,-0.668 -0.42041,-1.002 -0.77783,-1.002 -0.34571,1e-5 -0.60352,0.29298 -0.77344,0.87891 -0.16992,0.58593 -0.25488,1.8897 -0.25488,3.9111 0,3.1699 0.34277,4.7549 1.0283,4.7549 0.67968,0 1.0195,-1.585 1.0195,-4.7549 z"
       fill="#ffffff"
       id="path31"
       style="stroke-width:1.00065;stroke-dasharray:none;display:inline" />
    <path
       d="m 662.4,335.3 h 91.156 m 16.517,0 h 66.848 m -257.72,0 h 66.367"
       fill="none"
       stroke="#ffffff"
       stroke-width="1.933"
       id="path32"
       style="stroke-width:1.00065;stroke-dasharray:none;display:inline"
       transform="matrix(0.69155,0,0,0.69155,-349.03198,-64.099544)" />
    <path
       d="m 754.33,315.83 h 87.054 m -164.81,0 h 63.108 m -164.95,0 h 87.197"
       fill="none"
       stroke="#ffffff"
       stroke-width="2"
       id="path33"
       style="stroke-width:1.00065;stroke-dasharray:none;display:inline"
       transform="matrix(0.69155,0,0,0.69155,-349.03198,-64.099544)" />
    <path
       d="m 795.22,384.3 -85.699,-87.196 128.18,33.783 M 620.081,384.3 705.78,297.104 577.6,330.887"
       fill="none"
       stroke="#ffffff"
       stroke-width="2"
       id="path34"
       style="stroke-width:1.00065;stroke-dasharray:none;display:inline"
       transform="matrix(0.69155,0,0,0.69155,-349.03198,-64.099544)" />
  </g>
  <g
     inkscape:groupmode="layer"
     id="layer1"
     inkscape:label="c_cadre"
     style="display:inline">
    <circle
       cx="707"
       cy="295"
       r="200"
       stroke="#000000"
       fill="#5b93c5"
       stroke-width="1"
       id="circle1"
       style="display:none;stroke-width:1.00065;stroke-dasharray:none"
       transform="matrix(0.69155,0,0,0.69155,-349.03198,-64.099544)" />
    <path
       d="m 708.04,110.57 c -100.92,0 -182.81,81.885 -182.81,182.81 0,48.811 19.158,93.177 50.362,125.98 h 264.93 c 31.205,-32.8 50.362,-77.166 50.362,-125.98 0,-100.92 -81.932,-182.81 -182.85,-182.81 z m 202.87,185.47 c 0,111.97 -90.875,202.85 -202.85,202.85 -111.975,0 -202.85,-90.875 -202.85,-202.85 0,-111.975 90.875,-202.85 202.85,-202.85 111.975,0 202.85,90.875 202.85,202.85 z"
       fill="#5b6066"
       fill-rule="evenodd"
       stroke="#000000"
       stroke-linecap="square"
       id="path3"
       style="display:inline;stroke-width:1.00065;stroke-dasharray:none"
       transform="matrix(0.69197157,0,0,0.69153418,-349.28637,-64.050777)" />
    <path
       d="m 708.06,160.42 c -74.632,0 -135.22,60.586 -135.22,135.22 0,54.525 32.347,101.53 78.875,122.91 h 1.125 l 36.281,-64.25 h 37.469 l 36.688,64.25 h 1.125 c 46.528,-21.373 78.875,-68.381 78.875,-122.91 0,-74.632 -60.586,-135.22 -135.22,-135.22 z"
       fill="none"
       stroke="#000000"
       stroke-linecap="square"
       id="path4"
       style="display:inline;stroke-width:1.00065;stroke-dasharray:none"
       transform="matrix(0.69197157,0,0,0.69153418,-349.28637,-64.050777)" />
    <path
       d="m 741.34,458.36 c 0,18.369 -14.908,33.277 -33.277,33.277 -18.369,0 -33.277,-14.908 -33.277,-33.277 0,-18.369 14.908,-33.277 33.277,-33.277 18.369,0 33.277,14.908 33.277,33.277 z m -6.3786,0 c 0,14.848 -12.051,26.899 -26.899,26.899 -14.848,0 -26.899,-12.051 -26.899,-26.899 0,-14.848 12.051,-26.899 26.899,-26.899 14.848,0 26.899,12.051 26.899,26.899 z"
       fill="#3f3e44"
       fill-rule="evenodd"
       stroke="#000000"
       stroke-linecap="square"
       stroke-width=".70737"
       id="path5"
       style="display:inline;stroke-width:1.00065;stroke-dasharray:none"
       transform="matrix(0.69197157,0,0,0.69153418,-349.28637,-64.050777)" />
    <path
       d="m 657.65,412.51 c 2.0042,-3.4579 10.125,-17.77 18.046,-31.805 l 14.402,-25.518 17.968,0.0468 17.968,0.0468 18.012,31.758 18.012,31.758 h -108.05 l 3.6441,-6.2871 z"
       fill="#5b6066"
       id="path6"
       style="display:inline;stroke-width:1.00065;stroke-dasharray:none"
       transform="matrix(0.69197157,0,0,0.69153418,-349.28637,-64.050777)" />
  </g>
  <g
     inkscape:groupmode="layer"
     id="layer2"
     inkscape:label="graduation">
    <path
       d="m 679.45,140.48 3.473,19.696"
       fill="none"
       stroke="#ffffff"
       stroke-linecap="square"
       stroke-width="3"
       id="path7"
       style="stroke-width:1.00065;stroke-dasharray:none;display:block"
       transform="matrix(0.69155,0,0,0.69155,-349.03198,-64.099544)" />
    <path
       d="m 737.09,140.48 -3.473,19.696"
       fill="none"
       stroke="#ffffff"
       stroke-linecap="square"
       stroke-width="3"
       id="path8"
       style="stroke-width:1.00065;stroke-dasharray:none;display:block"
       transform="matrix(0.69155,0,0,0.69155,-349.03198,-64.099544)" />
    <path
       d="m 651.62,148.54 6.8404,18.794"
       fill="none"
       stroke="#ffffff"
       stroke-linecap="square"
       stroke-width="3"
       id="path9"
       style="stroke-width:1.00065;stroke-dasharray:none;display:block"
       transform="matrix(0.69155,0,0,0.69155,-349.03198,-64.099544)" />
    <path
       d="m 763.96,148.54 -6.8404,18.794"
       fill="none"
       stroke="#ffffff"
       stroke-linecap="square"
       stroke-width="3"
       id="path10"
       style="stroke-width:1.00065;stroke-dasharray:none;display:block"
       transform="matrix(0.69155,0,0,0.69155,-349.03198,-64.099544)" />
    <path
       d="m 686.02,115.18 h 43.951 l -12.651,45.444 h -5.3751 V 118.55 h -8.1554 l 0.55605,42.074 h -4.8191 l -13.506,-45.444 z"
       fill="#ff4a23"
       fill-rule="evenodd"
       stroke="#000000"
       stroke-width=".5"
       id="path11"
       style="stroke-width:1.00065;stroke-dasharray:none;display:block"
       transform="matrix(0.69155,0,0,0.69155,-349.03198,-64.099544)" />
    <path
       d="m 548.95,296.19 h 20"
       fill="none"
       stroke="#ffffff"
       stroke-linecap="round"
       stroke-width="8"
       id="path12"
       style="stroke-width:1.00065;stroke-dasharray:none;display:block"
       transform="matrix(0.69155,0,0,0.69155,-349.03198,-64.099544)" />
    <path
       d="m 847.5,296.19 h 20"
       fill="none"
       stroke="#ffffff"
       stroke-linecap="round"
       stroke-width="8"
       id="path13"
       style="stroke-width:1.00065;stroke-dasharray:none;display:block"
       transform="matrix(0.69155,0,0,0.69155,-349.03198,-64.099544)" />
    <path
       d="m 583.3,231.59 -17.32,-10"
       fill="none"
       stroke="#ffffff"
       stroke-linecap="round"
       stroke-width="8"
       id="path14"
       style="stroke-width:1.00065;stroke-dasharray:none;display:block"
       transform="matrix(0.69155,0,0,0.69155,-349.03198,-64.099544)" />
    <path
       d="m 832.2,231.59 17.32,-10"
       fill="none"
       stroke="#ffffff"
       stroke-linecap="round"
       stroke-width="8"
       id="path15"
       style="stroke-width:1.00065;stroke-dasharray:none;display:block"
       transform="matrix(0.69155,0,0,0.69155,-349.03198,-64.099544)" />
    <path
       d="m 708.27,136.08 v 20"
       fill="none"
       stroke="#ffffff"
       stroke-linecap="square"
       stroke-width="8"
       id="path16"
       style="stroke-width:1.00065;stroke-dasharray:none;display:block"
       transform="matrix(0.69155,0,0,0.69155,-349.03198,-64.099544)" />
    <path
       d="m 791.67,160.23 -10,17.32"
       fill="none"
       stroke="#ffffff"
       stroke-linecap="round"
       stroke-width="8"
       id="path17"
       style="stroke-width:1.00065;stroke-dasharray:none;display:block"
       transform="matrix(0.69155,0,0,0.69155,-349.03198,-64.099544)" />
    <path
       d="m 623.38,160.23 10,17.32"
       fill="none"
       stroke="#ffffff"
       stroke-linecap="round"
       stroke-width="8"
       id="path18"
       style="stroke-width:1.00065;stroke-dasharray:none;display:block"
       transform="matrix(0.69155,0,0,0.69155,-349.03198,-64.099544)" />
    <path
       transform="matrix(0.69155,0,0,0.69155,-33.498461,-63.62929)"
       d="m 255.55,295.92 a 3.76205,3.76205 0 1 1 -7.5241,0 3.76205,3.76205 0 1 1 7.5241,0 z"
       fill="#fc9258"
       stroke-width=".75"
       id="path28"
       style="stroke-width:1.00065;stroke-dasharray:none;display:block" />
    <path
       d="m 442.03,95.406 c -1.6742,8.1376 -0.76269,23.356 -5.0938,24.188 -4.33111,0.832 -4.3214,-0.30155 -9.9688,-4.2188 -5.6474,-3.91725 -11.332,-9.9112 -17.031,-18.094 h -5.7812 c 10.355,16.408 20.647,26.062 30.875,29.406 v 23.525 h 16.938 v -23.837 h 0.0312 v 0.125 c 10.353,-3.5917 20.635,-13.482 30.875,-29.219 h -5.75 c -5.5042,7.6255 -11.044,13.482 -16.594,17.469 -5.55,3.987 -6.5907,5.5821 -10.438,4.8438 -3.8473,-0.7383 -3.5625,-12.824 -4.625,-21.219 -0.13376,-1.0568 -0.28156,-2.0589 -0.46875,-2.9688 h -2.9688 z"
       fill="#a06b4f"
       stroke-width=".5"
       id="path25"
       style="stroke-width:1.00065;stroke-dasharray:none;display:block"
       transform="matrix(0.69155,0,0,0.69155,-166.08243,76.596303)" />
    <path
       d="m 478.24,89.392 h 58.849 a 3.762,3.762 0 0 1 3.762,3.762 3.762,3.762 0 0 1 -3.762,3.762 H 478.24 a 3.762,3.762 0 0 1 -3.762,-3.762 3.762,3.762 0 0 1 3.762,-3.762"
       fill="#fc9258"
       stroke-width=".75"
       id="path27"
       style="stroke-width:1.00065;stroke-dasharray:none;display:block"
       transform="matrix(0.69155,0,0,0.69155,-166.08243,76.596303)" />
    <path
       d="m 349.93,89.392 h 58.849 a 3.762,3.762 0 0 1 3.762,3.762 3.762,3.762 0 0 1 -3.762,3.762 H 349.93 a 3.762,3.762 0 0 1 -3.762,-3.762 3.762,3.762 0 0 1 3.762,-3.762"
       fill="#fc9258"
       stroke-width=".75"
       id="path26"
       style="stroke-width:1.00065;stroke-dasharray:none;display:block"
       transform="matrix(0.69155,0,0,0.69155,-166.08243,76.596303)" />
  </g>
</svg>